<?xml version="1.0" standalone="no"?>
<!DOCTYPE svg PUBLIC "-//W3C//DTD SVG 20010904//EN"
 "http://www.w3.org/TR/2001/REC-SVG-20010904/DTD/svg10.dtd">
<svg version="1.0" xmlns="http://www.w3.org/2000/svg"
 width="208.000000pt" height="208.000000pt" viewBox="0 0 208.000000 208.000000"
 preserveAspectRatio="xMidYMid meet">
<metadata>
Created by potrace 1.11, written by Peter Selinger 2001-2013
</metadata>
<g transform="translate(0.000000,208.000000) scale(0.100000,-0.100000)"
fill="#000000" stroke="none">
<path d="M831 2059 c-296 -64 -539 -239 -694 -501 -52 -88 -92 -197 -117 -319
-29 -139 -24 -319 13 -460 97 -371 387 -656 764 -751 126 -32 360 -32 486 0
125 31 227 76 331 146 220 146 373 364 438 623 32 126 32 360 0 486 -95 377
-379 667 -751 764 -136 36 -337 41 -470 12z m-333 -406 l3 -93 -56 0 -55 0 0
96 0 95 53 -3 52 -3 3 -92z m460 -176 c50 -27 112 -94 112 -124 0 -20 18 -16
25 6 11 36 100 108 161 130 49 19 74 22 149 19 76 -3 98 -8 145 -33 65 -36
113 -100 129 -175 7 -31 11 -188 11 -406 l0 -355 -57 3 -58 3 -5 370 c-4 318
-7 374 -21 400 -37 66 -97 95 -196 95 -115 -1 -180 -45 -227 -157 -19 -44 -21
-73 -24 -381 l-3 -332 -59 0 -59 0 -3 368 c-3 336 -5 370 -22 405 -30 61 -77
90 -153 95 -123 8 -207 -39 -260 -146 l-28 -57 -5 -330 -5 -330 -57 -3 -58 -3
0 476 0 476 53 -3 52 -3 5 -74 5 -75 29 42 c64 94 155 134 286 129 68 -3 95
-9 138 -30z"/>
</g>
</svg>
